# xmcd
#
# Track frame offsets: 
#        150
#        8954
#        21094
#        33973
#        50620
#        66043
#        77407
#        89338
#        102032
#        115504
#        127224
#
# Disc length: 1949 seconds
#
# Revision: 0
# Processed by: cddbd v1.5.2PL0 Copyright (c) Steve Scherf et al.
# Submitted via: ExactAudioCopy v0.99pb4
#
DISCID=80079b0b
DTITLE=Lonnie Spiker - My Future Ain't What It Used to Be
DYEAR=2002
DGENRE=Country
TTITLE0=Making You An Old Flame
TTITLE1=Somebody Oughta Write A Song About That
TTITLE2=Hurt Always Begins With Her
TTITLE3=You Make Me Want to be A Better Man
TTITLE4=Ft. Worth
TTITLE5=My Future Ain't What It Used to Be
TTITLE6=The Cows are Coming Home
TTITLE7=You're Dancing Around Love Tonight
TTITLE8=Let Me Drink this Over
TTITLE9=It's Just A Matter of Time
TTITLE10=The Dove
EXTD=
EXTT0=
EXTT1=
EXTT2=
EXTT3=
EXTT4=
EXTT5=
EXTT6=
EXTT7=
EXTT8=
EXTT9=
EXTT10=
PLAYORDER=
